<svg width="130" height="94" viewBox="0 0 130 94" fill="none" xmlns="http://www.w3.org/2000/svg">
<path d="M7.85254 5.53696V14.0542H72.4163L55.4029 1.27832H11.7787C8.98677 1.27832 7.99795 4.11741 7.85254 5.53696Z" fill="#18A0FB"/>
<path fill-rule="evenodd" clip-rule="evenodd" d="M9.16042 5.60502V12.7759H68.5676L54.9569 2.55518H11.7779C10.9221 2.55518 10.3433 2.95935 9.90656 3.59009C9.4578 4.23815 9.22687 5.05125 9.16042 5.60502ZM7.7381 2.15908C8.53008 1.01537 9.84171 0 11.7779 0H55.8472L76.2633 15.3311H6.54297V5.47251L6.54946 5.4091C6.63815 4.54336 6.97415 3.26229 7.7381 2.15908Z" fill="black"/>
<path d="M0 17.4608C0 15.1088 1.95312 13.2021 4.36242 13.2021H125.638C128.047 13.2021 130 15.1088 130 17.4608V89.0059C130 91.3579 128.047 93.2645 125.638 93.2645H4.36242C1.95312 93.2645 0 91.3579 0 89.0059V17.4608Z" fill="#18A0FB"/>
<path fill-rule="evenodd" clip-rule="evenodd" d="M125.638 15.7573H4.36242C3.3987 15.7573 2.61745 16.52 2.61745 17.4608V89.0059C2.61745 89.9467 3.3987 90.7094 4.36242 90.7094H125.638C126.601 90.7094 127.383 89.9467 127.383 89.0059V17.4608C127.383 16.52 126.601 15.7573 125.638 15.7573ZM4.36242 13.2021C1.95312 13.2021 0 15.1088 0 17.4608V89.0059C0 91.3579 1.95312 93.2645 4.36242 93.2645H125.638C128.047 93.2645 130 91.3579 130 89.0059V17.4608C130 15.1088 128.047 13.2021 125.638 13.2021H4.36242Z" fill="black"/>
</svg>
