<svg width="198" height="120" viewBox="0 0 198 120" fill="none" xmlns="http://www.w3.org/2000/svg">
<path d="M157.909 43.7097V114.842H31.4984V56.565V30.8544C31.4984 27.4264 33.7837 26.5693 34.9264 26.5693H85.4906L102.631 38.9961H153.195C156.966 38.9961 157.909 42.1385 157.909 43.7097Z" fill="#18A0FB"/>
<path fill-rule="evenodd" clip-rule="evenodd" d="M31.924 26.4683C32.9051 25.5852 34.0818 25.2812 34.9265 25.2812H85.9077L103.048 37.708H153.195C155.5 37.708 157.064 38.697 158.009 40.01C158.908 41.2575 159.194 42.7159 159.194 43.7072V116.125H30.2129V30.8519C30.2129 28.8268 30.9016 27.3884 31.924 26.4683ZM33.6439 28.3793C33.2379 28.7448 32.784 29.4489 32.784 30.8519V113.554H156.623V43.7072C156.623 43.1273 156.439 42.2288 155.923 41.5123C155.454 40.8613 154.662 40.2791 153.195 40.2791H102.214L85.0737 27.8523H34.9265C34.6285 27.8523 34.0911 27.9769 33.6439 28.3793Z" fill="black"/>
<path d="M64.5085 9.41028C64.7156 7.05275 66.7945 5.30941 69.152 5.51642L122.985 10.2433C125.342 10.4503 127.086 12.5293 126.879 14.8868L119.737 96.2213C119.53 98.5788 117.451 100.322 115.094 100.115L61.2607 95.3883C58.9032 95.1813 57.1598 93.1023 57.3668 90.7448L64.5085 9.41028Z" fill="white"/>
<path fill-rule="evenodd" clip-rule="evenodd" d="M122.76 12.8045L68.9271 8.07762C67.9841 7.99482 67.1526 8.69216 67.0697 9.63517L59.928 90.9697C59.8452 91.9127 60.5426 92.7443 61.4856 92.8271L115.318 97.554C116.261 97.6368 117.093 96.9394 117.176 95.9964L124.318 14.6619C124.4 13.7189 123.703 12.8873 122.76 12.8045ZM69.152 5.51642C66.7945 5.30941 64.7156 7.05275 64.5085 9.41028L57.3668 90.7448C57.1598 93.1023 58.9032 95.1813 61.2607 95.3883L115.094 100.115C117.451 100.322 119.53 98.5788 119.737 96.2213L126.879 14.8868C127.086 12.5293 125.342 10.4503 122.985 10.2433L69.152 5.51642Z" fill="black"/>
<path d="M110.626 3.72454C111.796 1.66753 114.413 0.948682 116.47 2.11894L163.44 28.8412C165.497 30.0114 166.216 32.6277 165.046 34.6847L124.672 105.651C123.502 107.708 120.885 108.427 118.828 107.257L71.8578 80.5346C69.8008 79.3644 69.0819 76.7481 70.2522 74.6911L110.626 3.72454Z" fill="white"/>
<path fill-rule="evenodd" clip-rule="evenodd" d="M162.169 31.0759L115.198 4.35366C114.375 3.88556 113.329 4.1731 112.861 4.9959L72.4869 75.9625C72.0188 76.7853 72.3063 77.8318 73.1291 78.2999L120.1 105.022C120.923 105.49 121.969 105.203 122.437 104.38L162.811 33.4133C163.279 32.5905 162.992 31.544 162.169 31.0759ZM116.47 2.11894C114.413 0.948682 111.796 1.66753 110.626 3.72454L70.2522 74.6911C69.0819 76.7481 69.8008 79.3644 71.8578 80.5346L118.828 107.257C120.885 108.427 123.502 107.708 124.672 105.651L165.046 34.6847C166.216 32.6277 165.497 30.0115 163.44 28.8412L116.47 2.11894Z" fill="black"/>
<path d="M167.9 21.1502C170.043 20.1445 172.595 21.0657 173.6 23.208L196.567 72.1248C197.573 74.267 196.652 76.819 194.509 77.8248L120.602 112.524C118.46 113.53 115.908 112.609 114.902 110.467L91.9357 61.5499C90.9299 59.4077 91.8512 56.8557 93.9934 55.8499L167.9 21.1502Z" fill="white"/>
<path fill-rule="evenodd" clip-rule="evenodd" d="M194.24 73.2175L171.273 24.3006C170.871 23.4437 169.85 23.0752 168.993 23.4776L95.0861 58.1772C94.2292 58.5795 93.8607 59.6003 94.263 60.4572L117.23 109.374C117.632 110.231 118.653 110.599 119.51 110.197L193.417 75.4975C194.274 75.0951 194.642 74.0743 194.24 73.2175ZM173.6 23.208C172.595 21.0657 170.043 20.1445 167.9 21.1502L93.9934 55.8499C91.8512 56.8557 90.9299 59.4077 91.9357 61.5499L114.902 110.467C115.908 112.609 118.46 113.53 120.602 112.524L194.509 77.8248C196.652 76.819 197.573 74.267 196.567 72.1248L173.6 23.208Z" fill="black"/>
<path d="M121.057 56.5654H4.07396C0.988691 56.5654 1.07439 59.4222 1.5029 60.8505C9.64459 76.5626 26.5279 109.101 28.9275 113.557C31.3272 118.014 34.7838 118.842 36.2122 118.699H153.624C157.395 118.699 158.052 116.128 157.909 114.843L128.342 62.5646C126.628 58.4509 122.771 56.8511 121.057 56.5654Z" fill="#18A0FB"/>
<path fill-rule="evenodd" clip-rule="evenodd" d="M2.70408 60.3757C10.8726 76.1393 27.672 108.515 30.0595 112.949C32.2315 116.983 35.2105 117.509 36.0844 117.422L36.1482 117.415H153.624C155.191 117.415 155.886 116.899 156.215 116.471C156.522 116.072 156.634 115.588 156.641 115.214L127.185 63.1316L127.155 63.0604C125.695 59.5561 122.42 58.1356 120.943 57.8523H4.07402C3.5027 57.8523 3.20074 57.9826 3.04211 58.0925C2.88639 58.2003 2.76791 58.3578 2.68493 58.5962C2.50892 59.102 2.5543 59.8127 2.70408 60.3757ZM1.57876 55.9785C2.2584 55.508 3.1027 55.2812 4.07402 55.2812H121.164L121.269 55.2987C123.261 55.6307 127.548 57.4087 129.498 61.9982L159.158 114.44L159.187 114.702C159.287 115.601 159.115 116.917 158.253 118.038C157.347 119.217 155.828 119.986 153.624 119.986H36.2701C34.2659 120.151 30.3924 118.99 27.7957 114.168C25.3897 109.7 8.4989 77.147 0.361567 61.4433L0.306216 61.3365L0.271645 61.2213C0.0163536 60.3703 -0.177291 58.9983 0.256708 57.7512C0.484401 57.0969 0.896203 56.4509 1.57876 55.9785Z" fill="black"/>
</svg>
