<svg width="36" height="20" viewBox="0 0 36 20" fill="none" xmlns="http://www.w3.org/2000/svg">
<path d="M35.9992 18.9088C35.7723 19.5728 35.4395 19.8424 34.6998 19.8688C33.0849 19.9192 31.4658 19.9 29.8508 19.992C28.4488 20.072 27.3376 19.5496 26.399 18.624C25.6331 17.8713 24.9304 17.0577 24.18 16.2906C23.905 16.0108 23.5996 15.7609 23.2694 15.545C22.7089 15.1778 22.3021 15.2466 21.8459 15.7322C21.3265 16.2834 21.1884 16.9761 21.0989 17.6825C21.0561 18.0329 21.0594 18.3881 21.0347 18.7408C20.9879 19.4152 20.6452 19.8152 19.9548 19.8656C19.1979 19.9216 18.4344 19.9088 17.6733 19.904C17.1353 19.9114 16.5973 19.8863 16.0625 19.8288C14.3086 19.6072 12.7644 18.8816 11.2817 17.9689C9.43912 16.8345 8.03867 15.3034 6.75246 13.6235C4.051 10.1077 1.96594 6.25667 0.15374 2.25367C-0.203769 1.46331 0.0616878 1.02493 0.955872 0.952133C1.51474 0.906535 2.07936 0.920135 2.64151 0.915335C3.77732 0.907336 4.91395 0.904136 6.05058 0.900136C6.81902 0.900136 7.33104 1.22972 7.67293 1.92168C8.5852 3.76746 9.52486 5.60017 10.4919 7.41981C10.8955 8.17977 11.4149 8.87733 12.111 9.41971C12.2638 9.54327 12.4327 9.64681 12.6131 9.72769C13.0643 9.92048 13.4934 9.80769 13.6454 9.35811C13.8544 8.74598 14.0035 8.11602 14.0908 7.4766C14.2981 5.99386 14.2467 4.48771 13.9388 3.02163C13.7547 2.15047 13.2098 1.6841 12.3477 1.5017C12.2111 1.45868 12.0795 1.40212 11.9548 1.33291C12.028 1.20732 12.0806 1.06413 12.1767 0.958532C12.5268 0.567207 13.01 0.311637 13.5377 0.238568C15.5653 -0.0526176 17.5969 -0.0974145 19.6253 0.21697C20.6403 0.376962 20.9813 0.716944 21.0767 1.79929C21.1588 2.70404 21.0767 3.6216 21.0652 4.53355C21.052 5.71909 21.0232 6.90543 21.0364 8.09017C21.0445 8.44317 21.1157 8.7921 21.2468 9.12132C21.5172 9.81328 22.1122 9.95168 22.6439 9.42371C23.2303 8.85701 23.77 8.24636 24.2581 7.5974C25.5303 5.83749 26.5396 3.93918 27.3557 1.94168C27.7107 1.07133 27.88 0.976932 28.8473 0.969732C30.7376 0.955333 32.6197 0.927333 34.5059 0.912933C34.7513 0.91031 34.9963 0.933917 35.2365 0.98333C35.5891 1.05853 35.894 1.21932 36 1.5945V2.07448C35.7732 2.59445 35.5833 3.13282 35.3121 3.6296C34.4081 5.28472 33.1876 6.73264 32.0411 8.22777C31.4477 9.00213 30.8699 9.79009 30.3308 10.6004C30.0127 11.0804 30.0514 11.6132 30.3982 12.078C30.6452 12.3949 30.9164 12.6933 31.2094 12.9707C32.2038 13.9507 33.2476 14.8866 34.1977 15.905C34.9916 16.7561 35.811 17.6241 36 18.8408L35.9992 18.9088Z" fill="white"/>
</svg>
