<svg width="24" height="24" viewBox="0 0 24 24" fill="none" xmlns="http://www.w3.org/2000/svg">
<path d="M0 20.5703V19.5214C0.0161794 19.4527 0.0285281 19.3832 0.036988 19.3131C0.115344 18.1722 0.343674 17.0471 0.715901 15.9677C1.61078 13.3345 2.96622 10.9527 4.65336 8.76463C4.96776 8.35705 5.32034 7.97734 5.65562 7.58793C3.85752 8.73859 2.25091 10.1272 0.637152 11.6152C0.671157 11.5002 0.682492 11.4475 0.702179 11.399C0.967063 10.7383 1.21942 10.0721 1.5022 9.41929C2.24375 7.70905 3.29195 6.23016 4.71779 5.02864C5.80059 4.11477 7.0051 3.39895 8.24361 2.7352C10.0173 1.78379 11.8869 1.23935 13.9159 1.37501C14.039 1.37218 14.1605 1.34567 14.2739 1.29688C15.1455 0.994078 16.004 0.647065 16.8881 0.397555C18.1409 0.0450915 19.4182 -0.109338 20.717 0.0844561C21.5731 0.211634 22.3164 0.546534 22.845 1.28719C23.3527 1.99939 23.5919 2.79758 23.6337 3.6636C23.6838 4.71735 23.469 5.73114 23.1338 6.71889C23.0832 6.84919 23.0611 6.98911 23.0691 7.12894C23.0772 7.26877 23.1151 7.40514 23.1803 7.52858C23.5494 8.27578 23.7676 9.09033 23.8222 9.92437C23.9063 11.2373 23.926 12.5551 23.9684 13.8705C23.9644 14.0282 23.9516 14.1855 23.9302 14.3417H9.0842C9.26317 14.785 9.40575 15.1859 9.58354 15.5698C10.2183 16.9415 11.2689 17.7961 12.7401 18.0686C13.8933 18.2818 14.9796 18.0728 15.9563 17.3848C16.5337 16.9779 16.9514 16.4256 17.2956 15.8145C17.391 15.6449 17.496 15.5929 17.681 15.5935C19.6986 15.6001 21.7163 15.5977 23.7339 15.5977H24C23.9833 15.6728 23.9779 15.7188 23.963 15.7642C23.376 17.5205 22.5133 19.1169 21.2122 20.4407C19.3031 22.3841 17.011 23.5196 14.3079 23.7552C12.383 23.9311 10.446 23.5994 8.68448 22.7923C8.54607 22.7318 8.44287 22.7536 8.31281 22.802C7.45671 23.1218 6.61195 23.4827 5.73557 23.7316C4.60742 24.052 3.44945 24.1343 2.32071 23.7062C1.25044 23.2998 0.441472 22.6094 0.153918 21.4267C0.0859074 21.1463 0.0483234 20.8562 0 20.5703ZM18.2012 11.3869C18.194 10.2284 17.9226 9.17826 17.2371 8.25471C15.8805 6.42698 13.7119 6.02789 11.7796 6.58868C10.201 7.04713 9.19576 8.19536 8.54787 9.68273C8.31579 10.2151 8.24301 10.7892 8.25613 11.3869H18.2012ZM7.89759 21.1154C7.44478 20.8217 7.02717 20.5594 6.6197 20.2827C5.68247 19.6462 4.88424 18.8686 4.40339 17.8191C4.04544 17.0378 3.74715 16.2275 3.42559 15.4299C3.39814 15.3627 3.36951 15.2955 3.3188 15.1756C2.96085 15.9175 2.60588 16.5976 2.29446 17.2952C2.04173 17.8566 1.82005 18.4318 1.63046 19.0182C1.42047 19.6789 1.35425 20.3669 1.66984 21.0167C2.22287 22.1528 3.22096 22.6991 4.56924 22.4035C5.73139 22.1449 6.78675 21.6071 7.89759 21.1154ZM16.316 2.49599C17.2568 3.02589 18.231 3.44497 19.0507 4.07057C19.8704 4.69616 20.5249 5.52826 21.2635 6.28103C21.4657 5.66452 21.6811 5.03651 21.8768 4.40365C21.9947 4.05528 22.0011 3.67799 21.8953 3.32567C21.5809 2.34156 20.4402 1.4937 19.4212 1.52338C19.0705 1.53301 18.7231 1.59421 18.3897 1.70506C17.6905 1.94307 17.0074 2.22891 16.316 2.49599Z" fill="#18A0FB"/>
</svg>
