<svg width="36" height="34" viewBox="0 0 36 34" fill="none" xmlns="http://www.w3.org/2000/svg">
<path d="M36 3.61825V30.3866C35.9757 30.4397 35.9555 30.4946 35.9396 30.5508C35.5624 32.6106 33.9494 33.9939 31.8655 33.9954C22.6239 34.0015 13.3812 34.0015 4.13748 33.9954C1.77903 33.9954 0.00603571 32.1986 0.00452678 29.8211C-0.00150893 21.2758 -0.00150893 12.7316 0.00452678 4.18831C0.00578039 3.70528 0.0831914 3.22552 0.233878 2.76696C0.808779 1.04311 2.34638 0.00789029 4.27026 0.00789029H30.2178C30.8214 0.00789029 31.4385 -0.0149124 32.0451 0.0170108C33.6385 0.100619 34.8276 0.859178 35.5564 2.2866C35.7661 2.69856 35.8491 3.17285 36 3.61825ZM18.2852 30.2027C22.3502 30.2027 26.4143 30.2027 30.4773 30.2027C30.9466 30.2027 31.4551 30.2194 31.7041 29.7071C31.941 29.2206 31.6513 28.8193 31.3887 28.4408C30.0236 26.4646 28.654 24.493 27.2799 22.5259C26.5254 21.4542 25.5039 21.3675 24.5819 22.2903C24.084 22.7904 23.6177 23.3255 23.0881 23.7876C22.7871 24.0634 22.4249 24.2626 22.0319 24.3683C21.2653 24.5401 20.7297 24.0993 20.283 23.5094C18.1373 20.6657 15.9826 17.8251 13.8188 14.9875C13.7013 14.8247 13.5706 14.6722 13.4279 14.5314C13.1186 14.2472 12.764 14.0845 12.3355 14.235C11.9069 14.3855 11.6731 14.7731 11.4754 15.1668C9.29348 19.5246 7.11207 23.8788 4.93117 28.2295C4.82889 28.4282 4.74747 28.6371 4.68824 28.8528C4.53734 29.4608 4.81348 29.9655 5.42761 30.1221C5.69047 30.1775 5.95895 30.201 6.22734 30.192C10.2481 30.2022 14.2674 30.2057 18.2852 30.2027ZM27.2105 10.0774C27.2123 9.29367 26.9833 8.52704 26.5525 7.87447C26.1217 7.2219 25.5085 6.71273 24.7904 6.41136C24.0723 6.10999 23.2816 6.02997 22.5183 6.18142C21.7551 6.33288 21.0535 6.709 20.5025 7.26221C19.9515 7.81541 19.5757 8.52084 19.4228 9.28925C19.2698 10.0577 19.3465 10.8545 19.6431 11.579C19.9398 12.3035 20.4431 12.923 21.0894 13.3593C21.7356 13.7955 22.4958 14.0289 23.2737 14.0298C24.3145 14.0266 25.3119 13.6096 26.0492 12.8695C26.7864 12.1293 27.2037 11.1259 27.2105 10.0774Z" fill="white"/>
</svg>
