<svg width="36" height="30" viewBox="0 0 36 30" fill="none" xmlns="http://www.w3.org/2000/svg">
<path d="M36 1.4277V2.34619C35.9634 2.47927 35.9213 2.61049 35.8922 2.74451C34.1426 10.9484 32.393 19.1517 30.6434 27.3544C30.5386 27.9173 30.3818 28.4692 30.1748 29.003C29.7999 29.8925 29.0744 30.1914 28.1606 29.8812C27.8394 29.7735 27.5361 29.6184 27.2608 29.421C24.7001 27.5578 22.1536 25.6833 19.5976 23.8192C19.1111 23.464 19.2677 23.4518 18.8168 23.8792C17.5334 25.0969 16.2524 26.3188 14.974 27.5447C14.5794 27.9196 14.1304 28.1529 13.5343 28.1248C13.5699 27.6037 13.6018 27.1042 13.6374 26.6046C13.793 24.4199 13.9458 22.2352 14.1154 20.0515C14.1351 19.8733 14.2163 19.7076 14.3451 19.5829C19.1846 15.2241 24.0272 10.87 28.8729 6.52063C29.1082 6.30975 29.3491 6.10262 29.5628 5.87019C29.6036 5.82475 29.6333 5.77045 29.6495 5.71158C29.6658 5.6527 29.6682 5.59086 29.6565 5.53091C29.623 5.48066 29.5771 5.43987 29.5232 5.41246C29.4694 5.38505 29.4094 5.37194 29.3491 5.37439C29.0163 5.45968 28.6611 5.53653 28.3743 5.71273C26.2185 7.03798 24.0825 8.38666 21.9389 9.72785C17.8705 12.2734 13.8011 14.8177 9.73084 17.3607C9.60806 17.4366 9.41872 17.5022 9.29406 17.4638C6.5772 16.6315 3.86315 15.788 1.15191 14.9332C0.671085 14.7833 0.264313 14.5256 0 14.0794V13.6577C0.146216 13.4627 0.254942 13.2097 0.447085 13.086C0.900247 12.7792 1.3832 12.5189 1.88862 12.309C9.52183 9.37232 17.1591 6.44471 24.8004 3.52616C27.7148 2.41085 30.6281 1.29461 33.5406 0.177422C34.6728 -0.256517 35.7244 0.0930715 35.9569 1.36396C35.9674 1.38756 35.982 1.40913 36 1.4277Z" fill="white"/>
</svg>
