<svg width="80" height="105" viewBox="0 0 80 105" fill="none" xmlns="http://www.w3.org/2000/svg">
<path d="M0 105V0L63.6364 0.452586L80 19.4612V105H0Z" fill="#FE6621"/>
<path d="M10 80.216H15.724C17.092 80.216 18.298 80.48 19.342 81.008C20.398 81.524 21.214 82.256 21.79 83.204C22.378 84.152 22.672 85.256 22.672 86.516C22.672 87.776 22.378 88.88 21.79 89.828C21.214 90.776 20.398 91.514 19.342 92.042C18.298 92.558 17.092 92.816 15.724 92.816H10V80.216ZM15.58 90.422C16.84 90.422 17.842 90.074 18.586 89.378C19.342 88.67 19.72 87.716 19.72 86.516C19.72 85.316 19.342 84.368 18.586 83.672C17.842 82.964 16.84 82.61 15.58 82.61H12.916V90.422H15.58Z" fill="white"/>
<path d="M32.7731 93.032C31.4651 93.032 30.2831 92.75 29.2271 92.186C28.1831 91.622 27.3611 90.848 26.7611 89.864C26.1731 88.868 25.8791 87.752 25.8791 86.516C25.8791 85.28 26.1731 84.17 26.7611 83.186C27.3611 82.19 28.1831 81.41 29.2271 80.846C30.2831 80.282 31.4651 80 32.7731 80C34.0811 80 35.2571 80.282 36.3011 80.846C37.3451 81.41 38.1671 82.19 38.7671 83.186C39.3671 84.17 39.6671 85.28 39.6671 86.516C39.6671 87.752 39.3671 88.868 38.7671 89.864C38.1671 90.848 37.3451 91.622 36.3011 92.186C35.2571 92.75 34.0811 93.032 32.7731 93.032ZM32.7731 90.548C33.5171 90.548 34.1891 90.38 34.7891 90.044C35.3891 89.696 35.8571 89.216 36.1931 88.604C36.5411 87.992 36.7151 87.296 36.7151 86.516C36.7151 85.736 36.5411 85.04 36.1931 84.428C35.8571 83.816 35.3891 83.342 34.7891 83.006C34.1891 82.658 33.5171 82.484 32.7731 82.484C32.0291 82.484 31.3571 82.658 30.7571 83.006C30.1571 83.342 29.6831 83.816 29.3351 84.428C28.9991 85.04 28.8311 85.736 28.8311 86.516C28.8311 87.296 28.9991 87.992 29.3351 88.604C29.6831 89.216 30.1571 89.696 30.7571 90.044C31.3571 90.38 32.0291 90.548 32.7731 90.548Z" fill="white"/>
<path d="M49.6886 93.032C48.4046 93.032 47.2406 92.756 46.1966 92.204C45.1646 91.64 44.3486 90.866 43.7486 89.882C43.1606 88.886 42.8666 87.764 42.8666 86.516C42.8666 85.268 43.1606 84.152 43.7486 83.168C44.3486 82.172 45.1646 81.398 46.1966 80.846C47.2406 80.282 48.4106 80 49.7066 80C50.7986 80 51.7826 80.192 52.6586 80.576C53.5466 80.96 54.2906 81.512 54.8906 82.232L53.0186 83.96C52.1666 82.976 51.1106 82.484 49.8506 82.484C49.0706 82.484 48.3746 82.658 47.7626 83.006C47.1506 83.342 46.6706 83.816 46.3226 84.428C45.9866 85.04 45.8186 85.736 45.8186 86.516C45.8186 87.296 45.9866 87.992 46.3226 88.604C46.6706 89.216 47.1506 89.696 47.7626 90.044C48.3746 90.38 49.0706 90.548 49.8506 90.548C51.1106 90.548 52.1666 90.05 53.0186 89.054L54.8906 90.782C54.2906 91.514 53.5466 92.072 52.6586 92.456C51.7706 92.84 50.7806 93.032 49.6886 93.032Z" fill="white"/>
<path d="M66.3517 92.816L63.3097 88.442L60.3217 92.816H56.9737L61.6357 86.408L57.2077 80.216H60.5197L63.4177 84.302L66.2617 80.216H69.4117L65.0197 86.3L69.7177 92.816H66.3517Z" fill="white"/>
</svg>
